<?xml version="1.0" encoding="utf-8"?>
<!-- Generator: Adobe Illustrator 17.0.0, SVG Export Plug-In . SVG Version: 6.00 Build 0)  -->
<!DOCTYPE svg PUBLIC "-//W3C//DTD SVG 1.1//EN" "http://www.w3.org/Graphics/SVG/1.1/DTD/svg11.dtd">
<svg version="1.1" id="Layer_1" xmlns="http://www.w3.org/2000/svg" xmlns:xlink="http://www.w3.org/1999/xlink" x="0px" y="0px"
	 width="400px" height="400px" viewBox="0 0 400 400" enable-background="new 0 0 400 400" xml:space="preserve">
<g>
	<g id="XMLID_1_">
		<g>
			<path fill="#404041" d="M200.28,24.95c96.65,0,175,78.35,175,175s-78.35,175-175,175s-175-78.35-175-175
				S103.63,24.95,200.28,24.95z M324.25,199.95c0-34.33-13.95-65.39-36.49-87.83c-22.42-22.33-53.34-36.14-87.48-36.14
				c-68.47,0-123.98,55.5-123.98,123.97s55.51,123.98,123.98,123.98C268.74,323.93,324.25,268.42,324.25,199.95z"/>
			<path fill="#FFFFFF" d="M287.76,112.12c22.54,22.44,36.49,53.5,36.49,87.83c0,68.47-55.51,123.98-123.97,123.98
				c-68.47,0-123.98-55.51-123.98-123.98S131.81,75.98,200.28,75.98C234.42,75.98,265.34,89.79,287.76,112.12h-73.5
				c0,0-25.89,0-25.9,0c-40.59,0-73.49,32.91-73.49,73.5c0,12.18,2.98,23.65,8.22,33.76c0.56-37.07,28.49-30.84,28.49-30.84
				s0,45.35,0,60.7c0,12.5,23.38,9.88,36.78,9.88c0.01,0,9.55,0,17.05,0c0-16.6,0-48,0-56.03c0-38.36,28.52-31.96,28.52-31.96v97.08
				c8.39,0,53.83,0,53.83-70.81V112.12z"/>
			<path fill="#404041" d="M287.76,112.12v85.28c0,70.81-45.44,70.81-53.83,70.81v-97.08c0,0-28.52-6.4-28.52,31.96
				c0,8.03,0,39.43,0,56.03c-7.5,0-17.04,0-17.05,0c-13.4,0-36.78,2.62-36.78-9.88c0-15.35,0-60.7,0-60.7s-27.93-6.23-28.49,30.84
				c-5.24-10.11-8.22-21.58-8.22-33.76c0-40.59,32.9-73.5,73.49-73.5c0.01,0,25.9,0,25.9,0H287.76z"/>
		</g>
	</g>
</g>
</svg>
