<?xml version="1.0" encoding="utf-8"?>
<!-- Generator: Adobe Illustrator 17.0.0, SVG Export Plug-In . SVG Version: 6.00 Build 0)  -->
<!DOCTYPE svg PUBLIC "-//W3C//DTD SVG 1.1//EN" "http://www.w3.org/Graphics/SVG/1.1/DTD/svg11.dtd">
<svg version="1.1" id="Layer_1" xmlns="http://www.w3.org/2000/svg" xmlns:xlink="http://www.w3.org/1999/xlink" x="0px" y="0px"
	 width="100px" height="100px" viewBox="0 0 100 100" enable-background="new 0 0 100 100" xml:space="preserve">
<path fill="#CD1337" d="M99.401,54.172L90.64,21.689c-1.622-6.006-6.334-10.725-12.287-12.32l-32.59-8.734
	C39.804-0.96,33.369,0.776,28.959,5.166L5.13,28.935c-2.172,2.165-3.74,4.866-4.531,7.829c-0.798,2.976-0.798,6.106,0,9.062
	l8.767,32.49c1.622,5.999,6.328,10.725,12.28,12.32l32.59,8.727c5.959,1.595,12.394-0.134,16.811-4.531l23.829-23.776
	c2.172-2.165,3.734-4.873,4.531-7.829C100.199,60.259,100.199,57.128,99.401,54.172z M42.64,12.292l18.105,4.853L50.026,57.041
	L38.182,12.928C39.489,12.104,41.098,11.876,42.64,12.292z M24.769,78.98c-1.93-0.516-3.465-1.944-3.982-3.874l-4.511-16.657
	l-4.27-15.759c-0.262-0.972-0.268-1.937-0.013-2.876c0.248-0.938,0.744-1.81,1.455-2.52l11.261-11.412L16.277,58H29.18l4.732-18.196
	l10.49,44.325L24.769,78.98z M88.006,60.205c-0.255,0.938-0.744,1.803-1.461,2.514L62.749,86.36
	c-1.421,1.408-3.459,1.87-5.389,1.354l-2.42-0.65l11.154-47.206L70.826,58h12.903l-9.853-37.561l1.354,0.474
	c1.93,0.516,3.465,1.993,3.988,3.924l8.781,32.444C88.26,58.253,88.254,59.266,88.006,60.205z"/>
</svg>
