<?xml version="1.0" encoding="UTF-8"?>
<!DOCTYPE svg PUBLIC "-//W3C//DTD SVG 1.1//EN" "http://www.w3.org/Graphics/SVG/1.1/DTD/svg11.dtd">
<svg version="1.1" xmlns="http://www.w3.org/2000/svg" xmlns:xlink="http://www.w3.org/1999/xlink" x="0" y="0" width="558" height="558" viewBox="0, 0, 558, 558">
  <g id="Background">
    <rect x="0" y="0" width="558" height="558" fill="#000000" fill-opacity="0"/>
  </g>
  <g id="Layer_1">
    <path d="M279,558 C124.913,558 0,433.087 0,279 C0,124.913 124.913,0 279,0 C433.087,0 558,124.913 558,279 C558,433.087 433.087,558 279,558 z" fill="#FFFFFF"/>
    <path d="M279.5,522.028 C145.556,522.028 36.972,413.444 36.972,279.5 C36.972,145.556 145.556,36.972 279.5,36.972 C413.444,36.972 522.028,145.556 522.028,279.5 C522.028,413.444 413.444,522.028 279.5,522.028 z" fill-opacity="0" stroke="#231B24" stroke-width="12" stroke-miterlimit="2"/>
  </g>
</svg>
