<?xml version="1.0" encoding="utf-8"?>
<!-- Generator: Adobe Illustrator 17.0.0, SVG Export Plug-In . SVG Version: 6.00 Build 0)  -->
<!DOCTYPE svg PUBLIC "-//W3C//DTD SVG 1.1//EN" "http://www.w3.org/Graphics/SVG/1.1/DTD/svg11.dtd">
<svg version="1.1" id="Layer_1" xmlns="http://www.w3.org/2000/svg" xmlns:xlink="http://www.w3.org/1999/xlink" x="0px" y="0px"
	 width="75px" height="75px" viewBox="0 0 75 75" enable-background="new 0 0 75 75" xml:space="preserve">
<g>
	<path id="cube-15-icon_2_" fill="#F9F9F9" d="M37.5,2.046l-18.017,9.827v19.869L37.5,41.356l18.017-9.613V11.981L37.5,2.046z
		 M50.456,12.932L37.508,19.84l-12.894-7.033l12.878-7.024L50.456,12.932z M22.759,15.526l13.103,7.147v14.096l-13.103-6.99V15.526z
		 M39.138,36.768V22.684l13.103-6.991v14.086L39.138,36.768z M48.965,21.153v6.661l-6.552,3.493v-6.659L48.965,21.153z"/>
	<path id="drop-30-icon_1_" fill="#F9F9F9" d="M64.056,41.006c0-2.425,0-9.368,0-10.663c0-2.559,1.598-3.859,3.293-3.859
		c1.679,0,3.342,1.272,3.342,3.859c0,1.363,0,9.463,0,13.561c0,2.645-0.24,3.916-1.906,6.943
		c-2.632,4.785-7.436,12.639-7.436,22.107H44.743c0,0-1.854-5.841-2.532-9.767c-1.365-7.89,0.418-11.523,3.682-14.888
		c3.394-3.494,5.073-5.147,6.626-6.755c3.588-3.718,8.47,0.648,5.624,4.058c-1.553,1.86-5.39,5.984-6.311,7.206
		c-0.888,1.183,0.768,2.843,2.071,1.481c1.903-1.984,6.324-6.911,7.851-8.687C63.223,43.891,64.056,42.854,64.056,41.006z
		 M10.941,41.006c0-2.425,0-9.368,0-10.663c0-2.559-1.588-3.859-3.284-3.859c-1.676,0-3.348,1.272-3.348,3.859
		c0,1.363,0,9.463,0,13.561c0,2.645,0.24,3.916,1.906,6.943c2.632,4.784,7.442,11.488,7.442,22.107h16.606
		c0,0,1.854-5.841,2.532-9.767c1.365-7.89-0.418-11.523-3.682-14.888c-3.394-3.494-5.073-5.147-6.625-6.755
		c-3.588-3.718-8.47,0.648-5.624,4.058c1.553,1.86,5.39,5.984,6.311,7.206c0.888,1.183-0.768,2.843-2.071,1.481
		c-1.903-1.984-6.324-6.911-7.851-8.687C11.784,43.891,10.941,42.854,10.941,41.006z"/>
</g>
</svg>
