<?xml version="1.0" encoding="utf-8"?>
<!-- Generator: Adobe Illustrator 17.0.0, SVG Export Plug-In . SVG Version: 6.00 Build 0)  -->
<!DOCTYPE svg PUBLIC "-//W3C//DTD SVG 1.1//EN" "http://www.w3.org/Graphics/SVG/1.1/DTD/svg11.dtd">
<svg version="1.1" id="Layer_1" xmlns="http://www.w3.org/2000/svg" xmlns:xlink="http://www.w3.org/1999/xlink" x="0px" y="0px"
	 width="100px" height="50px" viewBox="0 0 100 50" enable-background="new 0 0 100 50" xml:space="preserve">
<g>
	<g>
		<path fill="#231B24" d="M18.735,35.447h-4.41V21.335h4.41V35.447z M16.418,19.572h-0.031c-1.596,0-2.63-1.08-2.63-2.446
			c0-1.392,1.064-2.45,2.691-2.45c1.627,0,2.628,1.053,2.659,2.446C19.108,18.488,18.075,19.572,16.418,19.572z M36.373,35.447
			h-4.997v-7.3c0-1.913-0.783-3.217-2.503-3.217c-1.314,0-2.045,0.88-2.387,1.73c-0.128,0.303-0.107,0.727-0.107,1.151v7.637h-4.951
			c0,0,0.063-12.935,0-14.111h4.951v2.215c0.294-0.97,1.875-2.351,4.402-2.351c3.129,0,5.593,2.031,5.593,6.401V35.447z"/>
	</g>
</g>
<g>
	<g>
		<path fill="#F9F9F9" d="M68.735,35.447h-4.41V21.335h4.41V35.447z M66.418,19.572h-0.031c-1.596,0-2.63-1.08-2.63-2.446
			c0-1.392,1.064-2.45,2.691-2.45c1.627,0,2.628,1.053,2.659,2.446C69.108,18.488,68.075,19.572,66.418,19.572z M86.373,35.447
			h-4.997v-7.3c0-1.913-0.783-3.217-2.503-3.217c-1.314,0-2.045,0.88-2.387,1.73c-0.128,0.303-0.107,0.727-0.107,1.151v7.637h-4.951
			c0,0,0.063-12.935,0-14.111h4.951v2.215c0.294-0.97,1.875-2.351,4.402-2.351c3.129,0,5.593,2.031,5.593,6.401V35.447z"/>
	</g>
</g>
</svg>
