<?xml version="1.0" encoding="utf-8"?>
<!-- Generator: Adobe Illustrator 17.0.0, SVG Export Plug-In . SVG Version: 6.00 Build 0)  -->
<!DOCTYPE svg PUBLIC "-//W3C//DTD SVG 1.1//EN" "http://www.w3.org/Graphics/SVG/1.1/DTD/svg11.dtd">
<svg version="1.1" id="Layer_1" xmlns="http://www.w3.org/2000/svg" xmlns:xlink="http://www.w3.org/1999/xlink" x="0px" y="0px"
	 width="75px" height="75px" viewBox="0 0 75 75" enable-background="new 0 0 75 75" xml:space="preserve">
<path id="brick-8-icon_1_" fill="#F9F9F9" d="M19.244,20.581h-0.037v2.595c-0.095,4.372,11.93,4.381,11.784,0v-2.591
	C30.642,16.446,19.547,16.425,19.244,20.581z M28.845,20.98c0,0.852-1.662,1.546-3.711,1.546c-2.046,0-3.709-0.694-3.709-1.546
	s1.664-1.546,3.709-1.546C27.183,19.434,28.845,20.129,28.845,20.98z M6.354,21.463l0.024,0.013l-0.024-0.05L37.5,5l31.146,16.634
	v14.167L38.854,51.505V37.122L65.57,23.066L37.492,8.124l-27.98,14.77l26.634,14.163v14.437L6.354,35.629V21.463z M68.646,38.89
	v15.744L38.854,70V54.591L68.646,38.89z M31.562,29.761c-0.095,4.373,11.931,4.382,11.783,0v-2.592
	c-0.349-4.138-11.443-4.16-11.746-0.003h-0.037L31.562,29.761L31.562,29.761z M37.489,26.021c2.046,0,3.711,0.692,3.711,1.545
	c0,0.852-1.665,1.543-3.711,1.543c-2.046,0-3.711-0.692-3.711-1.543C33.779,26.713,35.444,26.021,37.489,26.021z M43.345,16.938
	v-2.589c-0.354-4.136-11.443-4.158-11.746-0.003h-0.037v2.592C31.467,21.313,43.498,21.321,43.345,16.938z M37.492,13.199
	c2.043,0,3.711,0.694,3.711,1.546c0,0.85-1.668,1.546-3.711,1.546c-2.048,0-3.711-0.696-3.711-1.546
	C33.781,13.893,35.444,13.199,37.492,13.199z M55.67,23.176v-2.591c-0.352-4.138-11.444-4.16-11.743-0.003h-0.04v2.593
	C43.789,27.549,55.818,27.558,55.67,23.176z M46.104,20.981c0-0.852,1.663-1.545,3.711-1.545c2.047,0,3.713,0.693,3.713,1.545
	s-1.666,1.545-3.713,1.545S46.104,21.833,46.104,20.981z M36.146,54.586V70L6.354,54.633v-15.91L36.146,54.586z"/>
</svg>
