<?xml version="1.0" encoding="UTF-8"?>
<!DOCTYPE svg PUBLIC "-//W3C//DTD SVG 1.1//EN" "http://www.w3.org/Graphics/SVG/1.1/DTD/svg11.dtd">
<svg version="1.1" xmlns="http://www.w3.org/2000/svg" xmlns:xlink="http://www.w3.org/1999/xlink" x="0" y="0" width="600" height="611.96" viewBox="0, 0, 600, 611.96">
  <g id="Background">
    <rect x="0" y="0" width="600" height="611.96" fill="#000000" fill-opacity="0"/>
  </g>
  <g id="layer1">
    <path d="M300,0 L244.248,61.887 C263.793,89.908 271.096,123.607 271.096,140.531 C254.496,111.257 236.26,102.804 218.304,90.698 L182.392,130.565 C231.229,147.508 261.13,205.316 261.13,265.116 C261.13,294.02 251.163,362.791 182.392,359.801 L182.392,359.52 C131.666,353.517 84.025,294.573 79.734,230.233 C75.456,166.084 102.658,103.654 147.508,51.827 L147.353,51.827 C65.339,100.62 8.427,187.614 0.872,288.881 C0.687,291.362 0.53,293.858 0.405,296.356 C0.402,296.408 0.408,296.46 0.405,296.512 C0.279,299.041 0.157,301.597 0.093,304.142 C0.027,306.735 0,309.352 0,311.96 C0,477.56 134.4,611.96 300,611.96 C465.6,611.96 600,477.56 600,311.96 C600,304.198 599.708,296.496 599.128,288.881 C591.573,187.614 534.661,100.62 452.647,51.827 L452.492,51.827 C497.342,103.654 524.544,166.084 520.266,230.233 C515.975,294.573 468.334,353.517 417.608,359.52 L417.608,359.801 C348.837,362.791 338.87,294.02 338.87,265.116 C338.87,205.316 368.771,147.508 417.608,130.565 L381.696,90.698 C363.74,102.804 345.504,111.257 328.904,140.531 C328.904,123.607 336.207,89.908 355.752,61.887 L300,0 z" fill="#000000" id="path8305"/>
  </g>
</svg>
