<?xml version="1.0" encoding="utf-8"?>
<!-- Generator: Adobe Illustrator 17.0.0, SVG Export Plug-In . SVG Version: 6.00 Build 0)  -->
<!DOCTYPE svg PUBLIC "-//W3C//DTD SVG 1.1//EN" "http://www.w3.org/Graphics/SVG/1.1/DTD/svg11.dtd">
<svg version="1.1" id="Layer_1" xmlns="http://www.w3.org/2000/svg" xmlns:xlink="http://www.w3.org/1999/xlink" x="0px" y="0px"
	 width="75px" height="75px" viewBox="0 0 75 75" enable-background="new 0 0 75 75" xml:space="preserve">
<g>
	<path fill="#F9F9F9" d="M7.023,10.5v54h60.953v-54H7.023z M24.851,15.545c1.177,0,2.13,0.954,2.13,2.13
		c0,1.177-0.954,2.13-2.13,2.13s-2.13-0.954-2.13-2.13C22.72,16.499,23.674,15.545,24.851,15.545z M16.551,15.545
		c1.177,0,2.13,0.954,2.13,2.13c0,1.177-0.954,2.13-2.13,2.13c-1.177,0-2.13-0.954-2.13-2.13
		C14.421,16.499,15.374,15.545,16.551,15.545z M35.281,57.103h-20.86V24.851h20.86V57.103z M33.151,19.806
		c-1.177,0-2.13-0.954-2.13-2.13c0-1.177,0.954-2.13,2.13-2.13c1.177,0,2.13,0.954,2.13,2.13
		C35.281,18.852,34.327,19.806,33.151,19.806z M60.579,57.103h-20.86V43.171h20.86V57.103z M60.579,38.733h-20.86V24.851h20.86
		V38.733z"/>
</g>
</svg>
