<?xml version="1.0" encoding="utf-8"?>
<!-- Generator: Adobe Illustrator 16.0.0, SVG Export Plug-In . SVG Version: 6.00 Build 0)  -->
<!DOCTYPE svg PUBLIC "-//W3C//DTD SVG 1.1//EN" "http://www.w3.org/Graphics/SVG/1.1/DTD/svg11.dtd">
<svg version="1.1" id="Layer_1" xmlns="http://www.w3.org/2000/svg" xmlns:xlink="http://www.w3.org/1999/xlink" x="0px" y="0px"
	 width="139.257px" height="168.328px" viewBox="0 0 139.257 168.328" enable-background="new 0 0 139.257 168.328"
	 xml:space="preserve">
<path fill-rule="evenodd" clip-rule="evenodd" fill="#4F2638" d="M34.49,45.776c-1.167,5.033-2.976,10.019-3.359,15.111
	c-0.652,8.697-1.997,17.799-0.208,26.123c3.646,16.946,17.482,24.52,34.242,20.317c11.523-2.885,20.854-9.292,28.436-18.406
	c18.452-22.188,20.418-48.084,17.041-75.195c-0.321-2.581-0.934-5.126-1.979-10.725c4.134,4.44,6.588,6.562,8.421,9.125
	c24.495,34.248,25.725,85.141,2.213,120.038c-16.215,24.067-39.386,34.99-68.372,31.746C18.202,160.249-3.04,127.891,3.179,91.958
	c2.467-14.257,8.41-26.984,18.09-37.748c3.317-3.693,7.514-6.591,11.308-9.853C33.215,44.831,33.853,45.303,34.49,45.776z"/>
<path fill-rule="evenodd" clip-rule="evenodd" fill="#4F2638" d="M41.647,67.221c0.993-15.574,8.612-28.882,22.92-38.122
	c7.069-4.563,15.112-5.958,22.676-1.896c8.149,4.374,11.399,12.408,10.724,21.31C96.694,65.314,89.333,78.954,74.719,88
	c-7.06,4.373-14.57,6.428-22.528,2.062C43.704,85.404,41.788,77.484,41.647,67.221z"/>
</svg>
