<?xml version="1.0" encoding="UTF-8"?>
<!DOCTYPE svg PUBLIC "-//W3C//DTD SVG 1.1//EN" "http://www.w3.org/Graphics/SVG/1.1/DTD/svg11.dtd">
<svg version="1.1" xmlns="http://www.w3.org/2000/svg" xmlns:xlink="http://www.w3.org/1999/xlink" x="0" y="0" width="75" height="75" viewBox="0, 0, 75, 75">
  <g id="Background">
    <rect x="0" y="0" width="75" height="75" fill="#000000" fill-opacity="0"/>
  </g>
  <g id="Layer_1">
    <g>
      <path d="M37.5,2.046 L19.483,11.873 L19.483,31.742 L37.5,41.356 L55.517,31.743 L55.517,11.981 L37.5,2.046 z M50.456,12.932 L37.508,19.84 L24.614,12.807 L37.492,5.783 L50.456,12.932 z M22.759,15.526 L35.862,22.673 L35.862,36.769 L22.759,29.779 L22.759,15.526 z M39.138,36.768 L39.138,22.684 L52.241,15.693 L52.241,29.779 L39.138,36.768 z M48.965,21.153 L48.965,27.814 L42.413,31.307 L42.413,24.648 L48.965,21.153 z" fill="#231B23" id="cube-15-icon_2_"/>
      <path d="M64.056,41.006 C64.056,38.581 64.056,31.638 64.056,30.343 C64.056,27.784 65.654,26.484 67.349,26.484 C69.028,26.484 70.691,27.756 70.691,30.343 C70.691,31.706 70.691,39.806 70.691,43.904 C70.691,46.549 70.451,47.82 68.785,50.847 C66.153,55.632 61.349,63.486 61.349,72.954 L44.743,72.954 C44.743,72.954 42.889,67.113 42.211,63.187 C40.846,55.297 42.629,51.664 45.893,48.299 C49.287,44.805 50.966,43.152 52.519,41.544 C56.107,37.826 60.989,42.192 58.143,45.602 C56.59,47.462 52.753,51.586 51.832,52.808 C50.944,53.991 52.6,55.651 53.903,54.289 C55.806,52.305 60.227,47.378 61.754,45.602 C63.223,43.891 64.056,42.854 64.056,41.006 z M10.941,41.006 C10.941,38.581 10.941,31.638 10.941,30.343 C10.941,27.784 9.353,26.484 7.657,26.484 C5.981,26.484 4.309,27.756 4.309,30.343 C4.309,31.706 4.309,39.806 4.309,43.904 C4.309,46.549 4.549,47.82 6.215,50.847 C8.847,55.631 13.657,62.335 13.657,72.954 L30.263,72.954 C30.263,72.954 32.117,67.113 32.795,63.187 C34.16,55.297 32.377,51.664 29.113,48.299 C25.719,44.805 24.04,43.152 22.488,41.544 C18.9,37.826 14.018,42.192 16.864,45.602 C18.417,47.462 22.254,51.586 23.175,52.808 C24.063,53.991 22.407,55.651 21.104,54.289 C19.201,52.305 14.78,47.378 13.253,45.602 C11.784,43.891 10.941,42.854 10.941,41.006 z" fill="#231B23" id="drop-30-icon_1_"/>
    </g>
  </g>
</svg>
