<?xml version="1.0" encoding="UTF-8"?>
<!DOCTYPE svg PUBLIC "-//W3C//DTD SVG 1.1//EN" "http://www.w3.org/Graphics/SVG/1.1/DTD/svg11.dtd">
<svg version="1.1" xmlns="http://www.w3.org/2000/svg" xmlns:xlink="http://www.w3.org/1999/xlink" x="0" y="0" width="75" height="75" viewBox="0, 0, 75, 75">
  <g id="Background">
    <rect x="0" y="0" width="75" height="75" fill="#000000" fill-opacity="0"/>
  </g>
  <g id="Layer_1">
    <path d="M19.244,20.581 L19.207,20.581 L19.207,23.176 C19.112,27.548 31.137,27.557 30.991,23.176 L30.991,20.585 C30.642,16.446 19.547,16.425 19.244,20.581 z M28.845,20.98 C28.845,21.832 27.183,22.526 25.134,22.526 C23.088,22.526 21.425,21.832 21.425,20.98 C21.425,20.128 23.089,19.434 25.134,19.434 C27.183,19.434 28.845,20.129 28.845,20.98 z M6.354,21.463 L6.378,21.476 L6.354,21.426 L37.5,5 L68.646,21.634 L68.646,35.801 L38.854,51.505 L38.854,37.122 L65.57,23.066 L37.492,8.124 L9.512,22.894 L36.146,37.057 L36.146,51.494 L6.354,35.629 L6.354,21.463 z M68.646,38.89 L68.646,54.634 L38.854,70 L38.854,54.591 L68.646,38.89 z M31.562,29.761 C31.467,34.134 43.493,34.143 43.345,29.761 L43.345,27.169 C42.996,23.031 31.902,23.009 31.599,27.166 L31.562,27.166 L31.562,29.761 L31.562,29.761 z M37.489,26.021 C39.535,26.021 41.2,26.713 41.2,27.566 C41.2,28.418 39.535,29.109 37.489,29.109 C35.443,29.109 33.778,28.417 33.778,27.566 C33.779,26.713 35.444,26.021 37.489,26.021 z M43.345,16.938 L43.345,14.349 C42.991,10.213 31.902,10.191 31.599,14.346 L31.562,14.346 L31.562,16.938 C31.467,21.313 43.498,21.321 43.345,16.938 z M37.492,13.199 C39.535,13.199 41.203,13.893 41.203,14.745 C41.203,15.595 39.535,16.291 37.492,16.291 C35.444,16.291 33.781,15.595 33.781,14.745 C33.781,13.893 35.444,13.199 37.492,13.199 z M55.67,23.176 L55.67,20.585 C55.318,16.447 44.226,16.425 43.927,20.582 L43.887,20.582 L43.887,23.175 C43.789,27.549 55.818,27.558 55.67,23.176 z M46.104,20.981 C46.104,20.129 47.767,19.436 49.815,19.436 C51.862,19.436 53.528,20.129 53.528,20.981 C53.528,21.833 51.862,22.526 49.815,22.526 C47.768,22.526 46.104,21.833 46.104,20.981 z M36.146,54.586 L36.146,70 L6.354,54.633 L6.354,38.723 L36.146,54.586 z" fill="#231B23" id="brick-8-icon_1_"/>
  </g>
</svg>
