<?xml version="1.0" encoding="utf-8"?>
<!-- Generator: Adobe Illustrator 15.1.0, SVG Export Plug-In . SVG Version: 6.00 Build 0)  -->
<!DOCTYPE svg PUBLIC "-//W3C//DTD SVG 1.1//EN" "http://www.w3.org/Graphics/SVG/1.1/DTD/svg11.dtd">
<svg version="1.1" xmlns="http://www.w3.org/2000/svg" xmlns:xlink="http://www.w3.org/1999/xlink" x="0px" y="0px" width="278px"
	height="286px" viewBox="-0.042 0 278 286" enable-background="new -0.042 0 278 286" xml:space="preserve">

	<g id="Layer_1">
		<rect x="67.265" y="46.721" fill="#DCDDDE" stroke="#505050" stroke-width="9.2462" stroke-linecap="round" stroke-linejoin="round" stroke-miterlimit="10" width="141.645" height="189.737"/>
		<g>
			<path fill="#505050" stroke="#505050" stroke-width="0.838" stroke-miterlimit="10" d="M128.211,82.067
				c0.054-9.12,6.986-15.23,15.927-15.177c6.493,0.041,10.253,3.561,12.316,7.293l-5.443,2.622c-1.226-2.396-3.882-4.315-6.909-4.336
				c-5.425-0.031-9.361,4.061-9.398,9.638c-0.036,5.579,3.855,9.721,9.281,9.753c3.022,0.02,5.701-1.867,6.963-4.25l5.407,2.645
				c-2.113,3.662-5.914,7.223-12.406,7.183C135.012,97.384,128.157,91.145,128.211,82.067z"/>
				<path fill="#505050" stroke="#505050" stroke-width="0.838" stroke-miterlimit="10" d="M171.83,97.082l-11.248-29.604l7.162,0.045
					l8.086,22.718l8.366-22.616l7.158,0.043l-11.61,29.461L171.83,97.082z"/>
				</g>

				<rect x="81.659" y="65.084" fill="#505050" stroke="#505050" stroke-width="0.7314" stroke-miterlimit="10" width="32.021" height="31.882"/>

				<line fill="none" stroke="#505050" stroke-width="4.9294" stroke-linecap="round" stroke-linejoin="round" stroke-miterlimit="10" x1="101.893" y1="211.774" x2="188.766" y2="211.774"/>

				<line fill="none" stroke="#505050" stroke-width="4.9294" stroke-linecap="round" stroke-linejoin="round" stroke-miterlimit="10" x1="101.893" y1="193.252" x2="188.766" y2="193.252"/>

				<line fill="none" stroke="#505050" stroke-width="4.9294" stroke-linecap="round" stroke-linejoin="round" stroke-miterlimit="10" x1="101.893" y1="174.729" x2="188.766" y2="174.729"/>

				<line fill="none" stroke="#505050" stroke-width="4.9294" stroke-linecap="round" stroke-linejoin="round" stroke-miterlimit="10" x1="101.893" y1="156.208" x2="188.766" y2="156.208"/>
				
				<line fill="none" stroke="#505050" stroke-width="4.9294" stroke-linecap="round" stroke-linejoin="round" stroke-miterlimit="10" x1="101.893" y1="137.686" x2="188.766" y2="137.686"/>

				<line fill="none" stroke="#505050" stroke-width="4.9294" stroke-linecap="round" stroke-linejoin="round" stroke-miterlimit="10" x1="101.893" y1="119.162" x2="188.766" y2="119.162"/>
				<ellipse fill="#505050" cx="85.945" cy="117.802" rx="3.309" ry="3.293"/>
				<ellipse fill="#505050" cx="85.945" cy="136.69" rx="3.309" ry="3.293"/>
				<ellipse fill="#505050" cx="85.945" cy="155.579" rx="3.309" ry="3.293"/>
				<ellipse fill="#505050" cx="85.945" cy="174.467" rx="3.309" ry="3.293"/>
				<ellipse fill="#505050" cx="85.945" cy="193.358" rx="3.309" ry="3.293"/>
				<ellipse fill="#505050" cx="85.945" cy="212.247" rx="3.309" ry="3.293"/>
			</g>
		</svg>
