<?xml version="1.0" encoding="UTF-8"?>
<!DOCTYPE svg PUBLIC "-//W3C//DTD SVG 1.1//EN" "http://www.w3.org/Graphics/SVG/1.1/DTD/svg11.dtd">
<svg version="1.1" xmlns="http://www.w3.org/2000/svg" xmlns:xlink="http://www.w3.org/1999/xlink" x="0" y="0" width="75" height="75" viewBox="0, 0, 75, 75">
  <g id="Background">
    <rect x="0" y="0" width="75" height="75" fill="#000000" fill-opacity="0"/>
  </g>
  <g id="Layer_1">
    <path d="M7.023,10.5 L7.023,64.5 L67.976,64.5 L67.976,10.5 L7.023,10.5 z M24.851,15.545 C26.028,15.545 26.981,16.499 26.981,17.675 C26.981,18.852 26.027,19.805 24.851,19.805 C23.675,19.805 22.721,18.851 22.721,17.675 C22.72,16.499 23.674,15.545 24.851,15.545 z M16.551,15.545 C17.728,15.545 18.681,16.499 18.681,17.675 C18.681,18.852 17.727,19.805 16.551,19.805 C15.374,19.805 14.421,18.851 14.421,17.675 C14.421,16.499 15.374,15.545 16.551,15.545 z M35.281,57.103 L14.421,57.103 L14.421,24.851 L35.281,24.851 L35.281,57.103 z M33.151,19.806 C31.974,19.806 31.021,18.852 31.021,17.676 C31.021,16.499 31.975,15.546 33.151,15.546 C34.328,15.546 35.281,16.5 35.281,17.676 C35.281,18.852 34.327,19.806 33.151,19.806 z M60.579,57.103 L39.719,57.103 L39.719,43.171 L60.579,43.171 L60.579,57.103 z M60.579,38.733 L39.719,38.733 L39.719,24.851 L60.579,24.851 L60.579,38.733 z" fill="#231B23"/>
  </g>
</svg>
